<svg height="512pt" viewBox="0 0 512 512" width="512pt" xmlns="http://www.w3.org/2000/svg"><path d="m498.5 313.488281h-24.679688c3.21875-7.648437 4.980469-15.898437 4.980469-24.5 0-21.789062-13.492187-43.917969-40.109375-65.769531-.902344-.738281-1.8125-1.46875-2.710937-2.179688-.003907 0-.007813-.003906-.007813-.007812l75.34375-221.03125h-31.644531l-69.34375 203.28125c-5.148437-3.109375-8.507813-4.882812-8.828125-5.050781l-6.898438-3.621094-6.929687 3.570313c-.132813.070312-.792969.410156-1.890625 1l30.402344-199.179688h-30.347656l-33.792969 221.402344.246093.039062c-.628906.488282-1.25 1-1.878906 1.507813-10.441406 8.53125-18.878906 17.140625-25.25 25.78125-6.339844-8.53125-14.691406-17.039063-25.011718-25.511719-18.289063-15.027344-36.429688-24.589844-37.1875-24.988281l-6.902344-3.621094-6.929688 3.570313c-.757812.390624-18.917968 9.800781-37.25 24.769531-10.449218 8.53125-18.878906 17.128906-25.25 25.769531-6.347656-8.519531-14.6875-17.039062-25.007812-25.5-18.300782-15.027344-36.429688-24.589844-37.191406-24.988281l-6.898438-3.621094-6.929688 3.570313c-.773437.390624-18.929687 9.800781-37.261718 24.769531-26.640625 21.75-40.140625 43.972656-40.140625 66.039062 0 8.601563 1.761719 16.851563 4.980469 24.5h-24.679688v60.511719h-13.5v138h512v-138h-13.5zm-104.019531-84.769531c19.269531 11.570312 54.320312 37.332031 54.320312 60.269531 0 9.132813-3.730469 17.589844-10.0625 24.5h-88.398437c-6.339844-6.910156-10.070313-15.367187-10.070313-24.5 0-23.339843 34.980469-48.867187 54.210938-60.269531zm-138.53125 0c19.261719 11.570312 54.320312 37.332031 54.320312 60.269531 0 9.132813-3.730469 17.589844-10.070312 24.5h-88.398438c-6.339843-6.910156-10.070312-15.367187-10.070312-24.5 0-23.339843 34.980469-48.867187 54.21875-60.269531zm-138.539063 0c19.269532 11.570312 54.320313 37.332031 54.320313 60.269531 0 9.132813-3.730469 17.589844-10.070313 24.5h-88.398437c-6.332031-6.910156-10.0625-15.367187-10.0625-24.5 0-23.339843 34.980469-48.867187 54.210937-60.269531zm-73.910156 114.769531h425v30.511719h-425zm438.5 138.511719h-452v-78h452zm0 0"/></svg>